# xmcd
#
# Track frame offsets: 
#        150
#        15565
#        30902
#        48545
#        61072
#        78445
#        92990
#        106830
#        124580
#        139715
#
# Disc length: 2150 seconds
#
# Revision: 1
# Processed by: cddbd v1.5.2PL0 Copyright (c) Steve Scherf et al.
# Submitted via: ExactAudioCopy v1.0b3
#
DISCID=7308640a
DTITLE=Tim Ryan - Seasons Of The Heart
DYEAR=1991
DGENRE=Country
TTITLE0=Just Another Chip
TTITLE1=Seventh Direction
TTITLE2=Seasons Of The Heart
TTITLE3=Ain't That Lovin' Ya
TTITLE4=Cool Drink Of Water
TTITLE5=I Will Love You Anyhow
TTITLE6=Forbidden Ground
TTITLE7=Heartache Goin' Downtown Tonight
TTITLE8=I Miss The Romance
TTITLE9=No More Sad Songs
EXTD=
EXTT0=
EXTT1=
EXTT2=
EXTT3=
EXTT4=
EXTT5=
EXTT6=
EXTT7=
EXTT8=
EXTT9=
PLAYORDER=
